<svg width="693" height="72" viewBox="0 0 693 72" fill="none" xmlns="http://www.w3.org/2000/svg">
<g>
<path opacity="1" d="M652.154 65.0769H692.308V70.6153H652.154V65.0769Z" fill="#262626"></path>
<path d="M103.846 70.6154V0H109.038L138.115 62.6538L166.846 0H172.385V70.6154H166.846V13.1538L140.538 70.9615H136.038L109.385 13.1538V70.9615H103.846V70.6154Z" fill="#262626"></path>
<path d="M195.923 65.0769H239.538V70.6154H195.923V65.0769ZM195.923 32.1923H233.654V37.7308H195.923V32.1923ZM195.923 0H239.538V5.53846H195.923V0Z" fill="#262626"></path>
<path d="M280.385 70.6154V5.53846H255.115V0H311.539V5.53846H286.269V70.6154H280.385V70.6154Z" fill="#262626"></path>
<path d="M350.654 6.92308L328.154 70.6154H322.269L347.192 0H354.115L379.038 70.6154H373.154L350.654 6.92308Z" fill="#262626"></path>
<path d="M398.077 65.0769H425.423C434.769 65.0769 442.038 60.2308 442.038 51.5769C442.038 42.9231 435.462 36.3462 427.154 36.3462H398.077V30.8077H425.077C432.346 30.8077 438.577 25.2692 438.577 17.6538C438.577 10.3846 432.692 5.53846 425.077 5.53846H398.077V0H425.077C436.154 0 444.462 7.61538 444.462 17.6538C444.462 24.2308 441 30.1154 435.808 32.8846C443.423 36 447.923 42.5769 447.923 50.8846C447.923 63 439.269 70.2692 427.154 70.2692H398.077V65.0769Z" fill="#262626"></path>
<path d="M467.308 45.3462V0H472.846V44.3077C472.846 60.5769 485.308 66.8077 494.308 66.8077C503.654 66.8077 515.769 60.2308 515.769 44.3077V0H521.308V45.3462C521.308 61.2692 509.885 72 493.962 72C478.038 72 467.308 61.6154 467.308 45.3462Z" fill="#262626"></path>
<path d="M546.577 70.6154V0H552.116V70.6154H546.577Z" fill="#262626"></path>
<path d="M576.692 65.0769H597.808C600.923 65.0769 604.038 65.0769 606.461 64.3846C619.615 61.9615 624.808 50.1923 624.808 35.3077C624.808 20.0769 619.615 8.30769 606.461 6.23077C604.385 5.88462 600.577 5.53846 597.808 5.53846H576.692V0H597.808C599.538 0 603.692 0 607.154 0.346154C623.077 2.42308 630.692 16.9615 630.692 35.3077C630.692 53.3077 622.731 67.8462 607.154 70.2692C603.692 70.6154 599.538 70.6154 597.808 70.6154H576.692V65.0769Z" fill="#262626"></path>
<path d="M652.154 70.6154V0H657.692V70.6154H652.154Z" fill="#262626"></path>
<path opacity="1" d="M195.923 70.6154V0H201.461V70.6154H195.923Z" fill="#262626"></path>
<path opacity="1" d="M347.192 0H354.115L379.038 70.6154H373.154L366.923 52.9615H334.385L328.154 70.6154H322.269L347.192 0ZM336.461 47.4231H365.192L350.654 6.92308L336.461 47.4231Z" fill="#262626"></path>
<path opacity="1" d="M398.077 70.6154V0H403.615V70.6154H398.077Z" fill="#262626"></path>
<path opacity="1" d="M576.692 70.6154V0H582.577V70.6154H576.692Z" fill="#262626"></path>
<path opacity="1" d="M64.9137 2.7719L2.98807 64.6975L6.17002 67.8795L68.0957 5.95385L64.9137 2.7719Z" fill="#5F8AFA"></path>
<path d="M4.5 0H0V35.3077H4.5V0Z" fill="#5F8AFA"></path>
<path d="M70.6153 35.3077H66.1153V70.6154H70.6153V35.3077Z" fill="#5F8AFA"></path>
<path d="M70.5475 70.8439V66.3439H35.2398V70.8439H70.5475Z" fill="#5F8AFA"></path>
<path d="M35.4516 4.6274V0.127396L0.143936 0.127396V4.6274L35.4516 4.6274Z" fill="#5F8AFA"></path>
</g>
<defs>
<clipPath id="clip0">
<rect width="692.308" height="72" fill="white"></rect>
</clipPath>
</defs>
</svg>