<?xml version="1.0" encoding="utf-8"?><svg viewBox="0 0 1440 500" xmlns="http://www.w3.org/2000/svg"><g fill="#e5e5e6"><path d="m1285.92 362.68a3.64 3.64 0 0 1 -.56-.05 3 3 0 0 1 -2.39-3.51l.1-.49a3 3 0 1 1 5.89 1.12l-.09.49a3 3 0 0 1 -2.95 2.44z"/><path d="m1242.91 496.53a3 3 0 0 1 -2.72-4.26l.41-.89a3 3 0 0 1 5.46 2.51l-.42.9a3 3 0 0 1 -2.73 1.74zm5.25-11.69a3 3 0 0 1 -2.75-4.2l.39-.89a3 3 0 1 1 5.5 2.37l-.39.92a3 3 0 0 1 -2.75 1.8zm5-11.8a3.09 3.09 0 0 1 -1.14-.23 3 3 0 0 1 -1.64-3.91l.37-.91a3 3 0 0 1 5.56 2.26l-.37.92a3 3 0 0 1 -2.8 1.83zm4.72-11.91a3.17 3.17 0 0 1 -1.08-.2 3 3 0 0 1 -1.72-3.88l.35-.92a3 3 0 1 1 5.6 2.15l-.35.92a3 3 0 0 1 -2.82 1.93zm4.45-12a3 3 0 0 1 -2.82-4l.33-.92a3 3 0 0 1 5.65 2l-.33.94a3 3 0 0 1 -2.85 1.96zm4.19-12.1a2.92 2.92 0 0 1 -1-.16 3 3 0 0 1 -1.89-3.8l.31-.93a3 3 0 1 1 5.69 1.9l-.31.94a3 3 0 0 1 -2.82 2.02zm3.92-12.2a3.11 3.11 0 0 1 -.89-.14 3 3 0 0 1 -2-3.75l.29-.94a3 3 0 1 1 5.73 1.77l-.29.95a3 3 0 0 1 -2.86 2.09zm3.65-12.28a2.91 2.91 0 0 1 -.82-.12 3 3 0 0 1 -2.06-3.71l.26-.94a3 3 0 0 1 5.78 1.63l-.27 1a3 3 0 0 1 -2.91 2.12zm3.38-12.36a2.84 2.84 0 0 1 -.76-.1 3 3 0 0 1 -2.14-3.66l.24-1a3 3 0 0 1 5.81 1.51l-.25 1a3 3 0 0 1 -2.92 2.23zm3.1-12.43a2.86 2.86 0 0 1 -.7-.09 3 3 0 0 1 -2.22-3.61l.23-1a3 3 0 0 1 5.84 1.39l-.23 1a3 3 0 0 1 -2.94 2.29zm2.83-12.5a2.7 2.7 0 0 1 -.63-.07 3 3 0 0 1 -2.31-3.56l.21-1a3 3 0 1 1 5.86 1.25l-.2 1a3 3 0 0 1 -2.95 2.36z"/><path d="m1255.87 43.78a3 3 0 0 1 -2.79-1.91l-.18-.45a3 3 0 1 1 5.58-2.21l.19.47a3 3 0 0 1 -2.8 4.1z"/><path d="m1290.45 174.29a3 3 0 0 1 -3-2.58l-.15-1a3 3 0 0 1 5.94-.85l.15 1a3 3 0 0 1 -2.55 3.39 3 3 0 0 1 -.39.04zm-2.07-13.37a3 3 0 0 1 -3-2.51l-.18-1a3 3 0 0 1 5.92-1l.17 1a3 3 0 0 1 -2.46 3.45 2.83 2.83 0 0 1 -.45.06zm-2.38-13.33a3 3 0 0 1 -2.94-2.44l-.2-1a3 3 0 0 1 5.89-1.14l.2 1a3 3 0 0 1 -2.38 3.51 2.75 2.75 0 0 1 -.57.07zm-2.69-13.26a3 3 0 0 1 -2.93-2.36l-.22-1a3 3 0 1 1 5.86-1.27l.22 1a3 3 0 0 1 -2.3 3.57 3.36 3.36 0 0 1 -.63.06zm-3-13.19a3 3 0 0 1 -2.91-2.3l-.25-1a3 3 0 0 1 5.84-1.41l.24 1a3 3 0 0 1 -2.22 3.62 3.34 3.34 0 0 1 -.71.09zm-3.31-13.14a3 3 0 0 1 -2.9-2.23l-.27-1a3 3 0 0 1 5.8-1.55l.27 1a3 3 0 0 1 -2.13 3.67 3 3 0 0 1 -.77.11zm-3.62-13a3 3 0 0 1 -2.88-2.16l-.29-1a3 3 0 1 1 5.75-1.68l.3 1a3 3 0 0 1 -2.88 3.84zm-3.93-13a3 3 0 0 1 -2.86-2.1l-.31-1a3 3 0 1 1 5.71-1.82l.32 1a3 3 0 0 1 -2 3.76 2.82 2.82 0 0 1 -.87.16zm-4.23-12.85a3 3 0 0 1 -2.83-2l-.34-1a3 3 0 1 1 5.67-2l.34 1a3 3 0 0 1 -1.87 3.81 3 3 0 0 1 -.98.22zm-4.52-12.76a3 3 0 0 1 -2.82-2l-.35-1a3 3 0 1 1 5.62-2.08l.37 1a3 3 0 0 1 -1.79 3.85 3.1 3.1 0 0 1 -1.04.26z"/><path d="m1292.13 187.14a3 3 0 0 1 -3-2.64l-.06-.5a3 3 0 0 1 6-.72l.06.5a3 3 0 0 1 -2.62 3.34z"/><path d="m148.17 185h-.38a3 3 0 0 1 -2.61-3.35l.07-.5a3 3 0 1 1 5.95.74l-.06.5a3 3 0 0 1 -2.97 2.61z"/><path d="m149.89 172.2a2.18 2.18 0 0 1 -.44 0 3 3 0 0 1 -2.53-3.4l.15-1a3 3 0 1 1 5.93.88l-.15 1a3 3 0 0 1 -2.96 2.52zm2.1-13.27a4.38 4.38 0 0 1 -.51 0 3 3 0 0 1 -2.46-3.46l.18-1a3 3 0 1 1 5.91 1l-.17 1a3 3 0 0 1 -2.94 2.46zm2.4-13.22a3.66 3.66 0 0 1 -.57-.05 3 3 0 0 1 -2.38-3.52l.2-1a3 3 0 1 1 5.89 1.15l-.2 1a3 3 0 0 1 -2.94 2.42zm2.72-13.15a3.59 3.59 0 0 1 -.65-.07 3 3 0 0 1 -2.29-3.58l.23-1a3 3 0 1 1 5.85 1.29l-.22 1a3 3 0 0 1 -2.92 2.36zm3-13.09a3 3 0 0 1 -.72-.09 3 3 0 0 1 -2.2-3.62l.25-1a3 3 0 1 1 5.82 1.43l-.24 1a3 3 0 0 1 -2.89 2.28zm3.32-13a3 3 0 0 1 -2.9-3.77l.27-1a3 3 0 1 1 5.79 1.57l-.26 1a3 3 0 0 1 -2.88 2.18zm3.62-12.93a3 3 0 0 1 -.84-.12 3 3 0 0 1 -2-3.72l.3-1a3 3 0 1 1 5.75 1.7l-.29 1a3 3 0 0 1 -2.9 2.12zm3.95-12.87a2.94 2.94 0 0 1 -.92-.14 3 3 0 0 1 -1.94-3.77l.31-1a3 3 0 1 1 5.72 1.84l-.32 1a3 3 0 0 1 -2.85 2.07zm4.22-12.75a3 3 0 0 1 -2.84-4l.34-1a3 3 0 0 1 5.67 2l-.34 1a3 3 0 0 1 -2.83 2zm4.51-12.65a2.94 2.94 0 0 1 -1-.19 3 3 0 0 1 -1.77-3.85l.36-1a3 3 0 0 1 5.62 2.1l-.35 1a3 3 0 0 1 -2.86 1.94z"/><path d="m184.54 42.73a2.89 2.89 0 0 1 -1.11-.22 3 3 0 0 1 -1.68-3.89l.19-.47a3 3 0 0 1 5.57 2.23l-.18.46a3 3 0 0 1 -2.79 1.89z"/><path d="m184.31 466.69a3 3 0 0 1 -2.79-1.9l-.19-.47a3 3 0 0 1 5.59-2.19l.18.46a3 3 0 0 1 -2.79 4.1z"/><path d="m179.7 454.65a3 3 0 0 1 -2.81-2l-.36-1a3 3 0 0 1 5.63-2.07l.36 1a3 3 0 0 1 -1.78 3.85 2.9 2.9 0 0 1 -1.04.22zm-4.51-12.65a3 3 0 0 1 -2.84-2l-.33-1a3 3 0 0 1 5.67-1.95l.34 1a3 3 0 0 1 -1.86 3.81 3.09 3.09 0 0 1 -.98.14zm-4.19-12.74a3 3 0 0 1 -2.86-2.09l-.31-1a3 3 0 1 1 5.72-1.81l.31 1a3 3 0 0 1 -2 3.77 3.19 3.19 0 0 1 -.86.13zm-4-12.84a3 3 0 0 1 -2.88-2.16l-.29-1a3 3 0 0 1 5.76-1.68l.29 1a3 3 0 0 1 -2 3.72 3.17 3.17 0 0 1 -.88.12zm-3.63-12.93a3 3 0 0 1 -2.89-2.22l-.27-1a3 3 0 1 1 5.8-1.55l.26 1a3 3 0 0 1 -2.9 3.78z"/><path d="m160.09 390.49a3 3 0 0 1 -2.92-2.29l-.11-.49a3 3 0 1 1 5.82-1.42l.12.49a3 3 0 0 1 -2.2 3.62 2.94 2.94 0 0 1 -.71.09z"/><path d="m301.76 146.58a2.76 2.76 0 0 1 -.75-.1 3 3 0 0 1 -2.15-3.66l.12-.48a3 3 0 0 1 5.81 1.51l-.13.49a3 3 0 0 1 -2.9 2.24z"/><path d="m305.1 134.41a2.71 2.71 0 0 1 -.84-.12 3 3 0 0 1 -2.05-3.71l.29-1a3 3 0 1 1 5.75 1.69l-.27 1a3 3 0 0 1 -2.88 2.14zm3.84-12.55a3 3 0 0 1 -2.86-3.92l.31-1a3 3 0 1 1 5.71 1.85l-.31 1a3 3 0 0 1 -2.85 2.07zm4.22-12.42a3 3 0 0 1 -1-.18 3 3 0 0 1 -1.81-3.83l.34-1a3 3 0 1 1 5.64 2l-.34 1a3 3 0 0 1 -2.83 2.01zm4.6-12.29a3 3 0 0 1 -2.79-4.1l.37-1a3 3 0 0 1 5.58 2.21l-.37.93a3 3 0 0 1 -2.79 1.96zm5-12.15a3.11 3.11 0 0 1 -1.18-.24 3 3 0 0 1 -1.58-3.94l.39-.93a3 3 0 0 1 5.52 2.37l-.4.92a3 3 0 0 1 -2.78 1.82zm5.34-12a3 3 0 0 1 -2.72-4.26l.43-.92a3 3 0 0 1 5.44 2.54l-.42.9a3 3 0 0 1 -2.76 1.74zm5.71-11.82a2.93 2.93 0 0 1 -1.34-.32 3 3 0 0 1 -1.34-4l.46-.91a3 3 0 1 1 5.35 2.7l-.45.9a3 3 0 0 1 -2.71 1.64zm6.06-11.63a3 3 0 0 1 -2.63-4.43l.48-.89a3 3 0 1 1 5.28 2.87l-.47.88a3 3 0 0 1 -2.69 1.58zm6.42-11.45a2.92 2.92 0 0 1 -1.5-.41 3 3 0 0 1 -1.09-4.1l.51-.87a3 3 0 0 1 5.18 3l-.5.87a3 3 0 0 1 -2.63 1.52zm6.71-11.23a3 3 0 0 1 -2.55-4.59l.54-.86a3 3 0 0 1 5.09 3.18l-.53.85a3 3 0 0 1 -2.55 1.42zm7.1-11a3 3 0 0 1 -1.65-.5 3 3 0 0 1 -.84-4.16l.56-.84a3 3 0 1 1 5 3.34l-.56.83a3 3 0 0 1 -2.48 1.29zm7.47-10.87a3 3 0 0 1 -1.73-.56 3 3 0 0 1 -.71-4.18l.59-.83a3 3 0 1 1 4.88 3.57l-.58.81a3 3 0 0 1 -2.45 1.19z"/><path d="m340.51 461.65a3 3 0 0 1 -2.64-1.57l-.24-.43a3 3 0 0 1 5.27-2.88l.24.44a3 3 0 0 1 -2.63 4.44z"/><path d="m334.58 450.37a3 3 0 0 1 -2.68-1.64l-.46-.91a3 3 0 1 1 5.35-2.71l.46.91a3 3 0 0 1 -2.67 4.35zm-5.82-11.92a3 3 0 0 1 -2.72-1.72l-.43-.93a3 3 0 1 1 5.43-2.54l.43.92a3 3 0 0 1 -2.71 4.27zm-5.45-12.09a3 3 0 0 1 -2.75-1.81l-.41-.94a3 3 0 0 1 5.51-2.38l.41.94a3 3 0 0 1 -1.57 3.94 3 3 0 0 1 -1.19.25zm-5.07-12.26a3 3 0 0 1 -2.79-1.89l-.37-.95a3 3 0 1 1 5.58-2.21l.37.95a3 3 0 0 1 -1.68 3.89 2.91 2.91 0 0 1 -1.11.21zm-4.68-12.4a3 3 0 0 1 -2.83-2l-.34-1a3 3 0 1 1 5.65-2l.34 1a3 3 0 0 1 -2.82 4zm-4.31-12.55a3 3 0 0 1 -2.85-2.07l-.32-1a3 3 0 0 1 5.72-1.84l.31 1a3 3 0 0 1 -1.92 3.78 2.8 2.8 0 0 1 -.94.13zm-3.91-12.67a3 3 0 0 1 -2.88-2.16l-.28-1a3 3 0 0 1 5.76-1.68l.28 1a3 3 0 0 1 -2 3.72 3 3 0 0 1 -.88.12z"/><path d="m301.82 363.69a3 3 0 0 1 -2.9-2.24l-.13-.48a3 3 0 0 1 5.81-1.51l.12.48a3 3 0 0 1 -2.14 3.66 3.35 3.35 0 0 1 -.76.09z"/><path d="m216 362a74 74 0 1 1 74-74 74.09 74.09 0 0 1 -74 74zm0-144a70 70 0 1 0 70 70 70.08 70.08 0 0 0 -70-70z"/><path d="m237.79 255.66-15 22.34a1.6 1.6 0 0 0 2.37 2.1l14.82-12.84a.6.6 0 0 1 1 .45v40.29a.6.6 0 0 1 -1.06.38l-44.77-53.61a7.65 7.65 0 0 0 -5.85-2.72h-1.57a7.66 7.66 0 0 0 -7.67 7.67v56.66a7.66 7.66 0 0 0 7.67 7.67 7.66 7.66 0 0 0 6.54-3.66l15-22.34a1.6 1.6 0 0 0 -2.37-2.1l-14.82 12.84a.6.6 0 0 1 -1-.45v-40.29a.6.6 0 0 1 1.06-.38l44.77 53.61a7.65 7.65 0 0 0 5.85 2.72h1.57a7.66 7.66 0 0 0 7.67-7.67v-56.66a7.66 7.66 0 0 0 -7.67-7.67 7.66 7.66 0 0 0 -6.54 3.66z"/><path d="m1224 326a74 74 0 1 1 74-74 74.09 74.09 0 0 1 -74 74zm0-144a70 70 0 1 0 70 70 70.08 70.08 0 0 0 -70-70z"/><path d="m1245.79 219.66-15 22.34a1.6 1.6 0 0 0 2.37 2.1l14.82-12.84a.6.6 0 0 1 1 .45v40.29a.6.6 0 0 1 -1.06.38l-44.77-53.61a7.65 7.65 0 0 0 -5.85-2.72h-1.57a7.66 7.66 0 0 0 -7.67 7.67v56.66a7.66 7.66 0 0 0 7.67 7.67 7.66 7.66 0 0 0 6.54-3.66l15-22.34a1.6 1.6 0 0 0 -2.37-2.1l-14.82 12.84a.6.6 0 0 1 -1-.45v-40.29a.6.6 0 0 1 1.06-.38l44.77 53.61a7.65 7.65 0 0 0 5.85 2.72h1.57a7.66 7.66 0 0 0 7.67-7.67v-56.66a7.66 7.66 0 0 0 -7.67-7.67 7.66 7.66 0 0 0 -6.54 3.66z"/><path d="m1044 443a38 38 0 1 1 38-38 38 38 0 0 1 -38 38zm0-72a34 34 0 1 0 34 34 34 34 0 0 0 -34-34z"/><path d="m1054.9 388.83-7.53 11.17a.8.8 0 0 0 1.19 1.05l7.41-6.42a.3.3 0 0 1 .49.23v20.14a.3.3 0 0 1 -.53.19l-22.38-26.8a3.84 3.84 0 0 0 -2.93-1.36h-.78a3.84 3.84 0 0 0 -3.84 3.84v28.32a3.84 3.84 0 0 0 3.84 3.84 3.81 3.81 0 0 0 3.26-1.83l7.53-11.17a.8.8 0 0 0 -1.19-1.05l-7.41 6.42a.3.3 0 0 1 -.49-.23v-20.17a.3.3 0 0 1 .53-.19l22.38 26.8a3.84 3.84 0 0 0 2.93 1.36h.78a3.84 3.84 0 0 0 3.84-3.84v-28.29a3.84 3.84 0 0 0 -3.84-3.84 3.81 3.81 0 0 0 -3.26 1.83z"/><path d="m1341 110a38 38 0 1 1 38-38 38 38 0 0 1 -38 38zm0-72a34 34 0 1 0 34 34 34 34 0 0 0 -34-34z"/><path d="m1351.9 55.83-7.53 11.17a.8.8 0 0 0 1.19 1l7.41-6.42a.3.3 0 0 1 .49.23v20.19a.3.3 0 0 1 -.53.19l-22.38-26.8a3.84 3.84 0 0 0 -2.93-1.36h-.78a3.84 3.84 0 0 0 -3.84 3.84v28.29a3.84 3.84 0 0 0 3.84 3.84 3.81 3.81 0 0 0 3.26-1.83l7.53-11.17a.8.8 0 0 0 -1.19-1l-7.44 6.37a.3.3 0 0 1 -.49-.23v-20.14a.3.3 0 0 1 .53-.19l22.38 26.8a3.84 3.84 0 0 0 2.93 1.36h.78a3.84 3.84 0 0 0 3.84-3.84v-28.29a3.84 3.84 0 0 0 -3.84-3.84 3.81 3.81 0 0 0 -3.23 1.83z"/><path d="m405 128a38 38 0 1 1 38-38 38 38 0 0 1 -38 38zm0-72a34 34 0 1 0 34 34 34 34 0 0 0 -34-34z"/><path d="m415.9 73.83-7.53 11.17a.8.8 0 0 0 1.19 1l7.44-6.37a.3.3 0 0 1 .49.23v20.14a.3.3 0 0 1 -.53.19l-22.38-26.8a3.84 3.84 0 0 0 -2.96-1.39h-.78a3.84 3.84 0 0 0 -3.84 3.84v28.32a3.84 3.84 0 0 0 3.84 3.84 3.81 3.81 0 0 0 3.26-1.83l7.53-11.17a.8.8 0 0 0 -1.19-1l-7.44 6.37a.3.3 0 0 1 -.49-.23v-20.14a.3.3 0 0 1 .53-.19l22.38 26.8a3.84 3.84 0 0 0 2.93 1.36h.78a3.84 3.84 0 0 0 3.84-3.84v-28.29a3.84 3.84 0 0 0 -3.81-3.84 3.81 3.81 0 0 0 -3.26 1.83z"/><path d="m81 173a20 20 0 1 1 20-20 20 20 0 0 1 -20 20zm0-36a16 16 0 1 0 16 16 16 16 0 0 0 -16-16z"/><path d="m86.45 144.91-3.77 5.59a.4.4 0 0 0 .6.53l3.7-3.21a.15.15 0 0 1 .25.11v10.07a.14.14 0 0 1 -.26.09l-11.2-13.4a1.91 1.91 0 0 0 -1.46-.68h-.39a1.92 1.92 0 0 0 -1.92 1.91v14.16a1.92 1.92 0 0 0 1.92 1.92 1.93 1.93 0 0 0 1.63-.91l3.77-5.59a.4.4 0 0 0 -.6-.53l-3.72 3.21a.15.15 0 0 1 -.25-.11v-10.07a.14.14 0 0 1 .26-.09l11.2 13.4a1.91 1.91 0 0 0 1.46.68h.39a1.92 1.92 0 0 0 1.94-1.91v-14.16a1.92 1.92 0 0 0 -1.92-1.92 1.93 1.93 0 0 0 -1.63.91z"/><path d="m1341 452a20 20 0 1 1 20-20 20 20 0 0 1 -20 20zm0-36a16 16 0 1 0 16 16 16 16 0 0 0 -16-16z"/><path d="m1346.45 423.91-3.77 5.59a.4.4 0 0 0 .6.53l3.7-3.21a.15.15 0 0 1 .25.11v10.07a.14.14 0 0 1 -.26.09l-11.2-13.4a1.91 1.91 0 0 0 -1.46-.68h-.39a1.92 1.92 0 0 0 -1.92 1.92v14.16a1.92 1.92 0 0 0 1.92 1.92 1.93 1.93 0 0 0 1.63-.91l3.77-5.59a.4.4 0 0 0 -.6-.53l-3.7 3.21a.15.15 0 0 1 -.25-.11v-10.08a.14.14 0 0 1 .26-.09l11.2 13.4a1.91 1.91 0 0 0 1.46.68h.39a1.92 1.92 0 0 0 1.92-1.92v-14.15a1.92 1.92 0 0 0 -1.92-1.92 1.93 1.93 0 0 0 -1.63.91z"/><path d="m1146.4 324.5a2.77 2.77 0 0 1 -.49 0 3 3 0 0 1 -2.47-3.45l.08-.48a3 3 0 1 1 5.92 1l-.08.5a3 3 0 0 1 -2.96 2.43z"/><path d="m1117.75 423.86a3 3 0 0 1 -1.17-.23 3 3 0 0 1 -1.59-3.93l.39-.92a3 3 0 1 1 5.52 2.33l-.38.92a3 3 0 0 1 -2.77 1.83zm4.88-12a2.91 2.91 0 0 1 -1.08-.2 3 3 0 0 1 -1.72-3.88l.36-.93a3 3 0 1 1 5.6 2.16l-.36.93a3 3 0 0 1 -2.8 1.92zm4.51-12.15a2.92 2.92 0 0 1 -1-.17 3 3 0 0 1 -1.83-3.83l.33-.93a3 3 0 1 1 5.66 2l-.33.94a3 3 0 0 1 -2.83 1.99zm4.15-12.27a3 3 0 0 1 -2.86-3.92l.3-.94a3 3 0 0 1 5.72 1.82l-.3 1a3 3 0 0 1 -2.86 2.04zm3.77-12.4a3 3 0 0 1 -2.88-3.83l.27-.95a3 3 0 0 1 5.77 1.65l-.27 1a3 3 0 0 1 -2.89 2.09zm3.41-12.5a3.2 3.2 0 0 1 -.75-.09 3 3 0 0 1 -2.16-3.65l.24-1a3 3 0 0 1 5.82 1.47l-.25 1a3 3 0 0 1 -2.9 2.27zm3-12.6a3 3 0 0 1 -.66-.07 3 3 0 0 1 -2.27-3.59l.22-1a3 3 0 1 1 5.85 1.3l-.21 1a3 3 0 0 1 -2.91 2.36zm2.65-12.68a2.76 2.76 0 0 1 -.57-.06 3 3 0 0 1 -2.38-3.51l.19-1a3 3 0 1 1 5.89 1.12l-.19 1a3 3 0 0 1 -2.92 2.45z"/><path d="m1112.71 435.28a2.94 2.94 0 0 1 -1.24-.28 3 3 0 0 1 -1.48-4l.21-.46a3 3 0 1 1 5.46 2.49l-.21.46a3 3 0 0 1 -2.74 1.79z"/><path d="m1134.71 133.71a3 3 0 0 1 -2.88-2.16l-.28-1a3 3 0 1 1 5.75-1.7l.29 1a3 3 0 0 1 -2 3.72 3 3 0 0 1 -.88.14zm-3.9-12.67a3 3 0 0 1 -2.81-2.04l-.31-1a3 3 0 0 1 5.7-1.87l.32 1a3 3 0 0 1 -1.92 3.78 3.06 3.06 0 0 1 -.98.09zm-4.3-12.54a3 3 0 0 1 -2.82-2l-.35-1a3 3 0 0 1 5.65-2l.34 1a3 3 0 0 1 -1.8 3.84 3 3 0 0 1 -1.02.16zm-4.68-12.41a3 3 0 0 1 -2.79-1.9l-.37-.94a3 3 0 0 1 5.57-2.22l.38 1a3 3 0 0 1 -1.68 3.89 3.12 3.12 0 0 1 -1.11.17zm-5.06-12.25a3 3 0 0 1 -2.77-1.84l-.41-.93a3 3 0 0 1 5.51-2.38l.41.94a3 3 0 0 1 -1.57 3.94 3 3 0 0 1 -1.17.27zm-5.43-12.09a3 3 0 0 1 -2.72-1.73l-.43-.92a3 3 0 0 1 5.42-2.56l.44.93a3 3 0 0 1 -1.44 4 3.05 3.05 0 0 1 -1.27.28zm-5.81-11.92a3 3 0 0 1 -2.68-1.65l-.46-.9a3 3 0 1 1 5.35-2.72l.46.91a3 3 0 0 1 -1.32 4 3 3 0 0 1 -1.35.36zm-6.17-11.74a3 3 0 0 1 -2.64-1.56l-.49-.89a3 3 0 0 1 5.26-2.89l.5.91a3 3 0 0 1 -2.63 4.43zm-6.54-11.53a3 3 0 0 1 -2.59-1.48l-.51-.88a3 3 0 1 1 5.16-3.05l.53.89a3 3 0 0 1 -2.59 4.52zm-6.89-11.33a3 3 0 0 1 -2.54-1.41l-.54-.85a3 3 0 1 1 5.07-3.21l.55.87a3 3 0 0 1 -2.54 4.6zm-7.23-11.11a3 3 0 0 1 -2.49-1.33l-.57-.84a3 3 0 1 1 5-3.36l.57.85a3 3 0 0 1 -2.48 4.68zm-7.58-10.89a3 3 0 0 1 -2.43-1.23l-.6-.82a3 3 0 0 1 .68-4.19 3 3 0 0 1 4.19.68l.6.83a3 3 0 0 1 -.69 4.19 3 3 0 0 1 -1.75.54z"/><path d="m1138.09 146a3 3 0 0 1 -2.9-2.25l-.13-.48a3 3 0 0 1 5.81-1.51l.12.48a3 3 0 0 1 -2.14 3.66 2.89 2.89 0 0 1 -.76.1z"/><path d="m1396.15 503a3.12 3.12 0 0 1 -1-.18 3 3 0 0 1 -1.78-3.85l.34-.94a3 3 0 0 1 5.64 2.07l-.35.93a3 3 0 0 1 -2.85 1.97zm4.36-12.24a2.81 2.81 0 0 1 -1-.17 3 3 0 0 1 -1.85-3.81l.32-.95a3 3 0 1 1 5.67 2l-.32.94a3 3 0 0 1 -2.82 1.99zm4.14-12.32a3.06 3.06 0 0 1 -.93-.15 3 3 0 0 1 -1.92-3.78l.31-.95a3 3 0 0 1 5.7 1.86l-.3.95a3 3 0 0 1 -2.86 2.07zm3.92-12.39a3 3 0 0 1 -.88-.13 3 3 0 0 1 -2-3.75l.29-.95a3 3 0 0 1 5.74 1.75l-.29 1a3 3 0 0 1 -2.86 2.08zm3.69-12.46a3.44 3.44 0 0 1 -.83-.11 3 3 0 0 1 -2-3.71l.27-1a3 3 0 1 1 5.77 1.65l-.27 1a3 3 0 0 1 -2.94 2.17zm3.47-12.52a3 3 0 0 1 -2.9-3.78l.25-1a3 3 0 1 1 5.8 1.54l-.26 1a3 3 0 0 1 -2.89 2.24zm3.23-12.59a3 3 0 0 1 -.72-.09 3 3 0 0 1 -2.19-3.63l.24-1a3 3 0 1 1 5.82 1.44l-.24 1a3 3 0 0 1 -2.87 2.28zm3-12.64a3.05 3.05 0 0 1 -.67-.07 3 3 0 0 1 -2.26-3.6l.22-1a3 3 0 0 1 5.85 1.33l-.22 1a3 3 0 0 1 -2.88 2.34zm2.77-12.69a3.17 3.17 0 0 1 -.61-.07 3 3 0 0 1 -2.32-3.55l.2-1a3 3 0 0 1 5.87 1.23l-.2 1a3 3 0 0 1 -2.93 2.39zm2.55-12.74a2.67 2.67 0 0 1 -.56-.06 3 3 0 0 1 -2.39-3.5l.18-1a3 3 0 0 1 5.9 1.12l-.19 1a3 3 0 0 1 -2.93 2.44zm2.31-12.79a2.92 2.92 0 0 1 -.51 0 3 3 0 0 1 -2.45-3.47l.17-1a3 3 0 0 1 5.91 1l-.16 1a3 3 0 0 1 -2.95 2.47zm2.08-12.83h-.45a3 3 0 0 1 -2.52-3.42l.15-1a3 3 0 0 1 5.94.9l-.15 1a3 3 0 0 1 -2.96 2.52zm1.85-12.86a2.75 2.75 0 0 1 -.4 0 3 3 0 0 1 -2.57-3.38l.13-1a3 3 0 0 1 6 .81l-.14 1a3 3 0 0 1 -3.01 2.57zm1.62-12.89a2.06 2.06 0 0 1 -.35 0 3 3 0 0 1 -2.63-3.32l.11-1a3 3 0 1 1 6 .69l-.11 1a3 3 0 0 1 -3.01 2.59zm1.38-12.91h-.29a3 3 0 0 1 -2.7-3.27l.1-1a3 3 0 0 1 6 .58l-.09 1a3 3 0 0 1 -3.01 2.69zm1.16-12.94h-.25a3 3 0 0 1 -2.75-3.23l.08-1a3 3 0 0 1 6 .48l-.08 1a3 3 0 0 1 -2.99 2.75zm.91-13h-.18a3 3 0 0 1 -2.81-3.18l.06-1a3 3 0 0 1 6 .36l-.06 1a3 3 0 0 1 -3 2.86zm.69-13h-.13a3 3 0 0 1 -2.87-3.13v-1a3 3 0 1 1 6 .26v1a3 3 0 0 1 -2.99 2.94zm.46-13h-.08a3 3 0 0 1 -2.92-3.07v-1a3 3 0 1 1 6 .16v1a3 3 0 0 1 -2.99 3zm.22-13a3 3 0 0 1 -3-3v-1a3 3 0 0 1 3-3 3 3 0 0 1 3 3v1a3 3 0 0 1 -2.96 3.1zm0-13a3 3 0 0 1 -3-3v-1l6-.07v1a3 3 0 0 1 -3 3zm-.24-13a3 3 0 0 1 -3-2.92v-1a3 3 0 0 1 2.91-3.08h.09a3 3 0 0 1 3 2.92v1a3 3 0 0 1 -2.92 3.08zm-.46-13a3 3 0 0 1 -3-2.86v-1a3 3 0 0 1 6-.27v1a3 3 0 0 1 -2.87 3.14zm-.7-13a3 3 0 0 1 -3-2.81l-.07-1a3 3 0 1 1 6-.38l.06 1a3 3 0 0 1 -2.8 3.18zm-.93-13a3 3 0 0 1 -3-2.76l-.08-1a3 3 0 1 1 6-.49l.08 1a3 3 0 0 1 -2.75 3.23zm-1.17-13a3 3 0 0 1 -3-2.71l-.1-1a3 3 0 1 1 6-.6l.1 1a3 3 0 0 1 -2.69 3.28zm-1.39-12.94a3 3 0 0 1 -3-2.65l-.12-1a3 3 0 0 1 6-.7l.12 1a3 3 0 0 1 -2.63 3.33 2.11 2.11 0 0 1 -.36.18zm-1.63-12.9a3 3 0 0 1 -3-2.6l-.14-1a3 3 0 0 1 6-.81l.13 1a3 3 0 0 1 -2.57 3.37 2.69 2.69 0 0 1 -.41.2zm-1.86-12.87a3 3 0 0 1 -3-2.55l-.15-1a3 3 0 0 1 5.93-.93l.15 1a3 3 0 0 1 -2.5 3.42 3.73 3.73 0 0 1 -.42.22zm-2.1-12.84a3 3 0 0 1 -3-2.49l-.17-1a3 3 0 0 1 5.91-1l.17 1a3 3 0 0 1 -2.45 3.46 2.94 2.94 0 0 1 -.45.19zm-2.33-12.8a3 3 0 0 1 -2.94-2.44l-.19-1a3 3 0 1 1 5.89-1.13l.19 1a3 3 0 0 1 -2.38 3.51 3.66 3.66 0 0 1 -.56.22zm-2.55-12.75a3 3 0 0 1 -2.94-2.38l-.2-1a3 3 0 1 1 5.87-1.24l.2 1a3 3 0 0 1 -2.31 3.56 3.34 3.34 0 0 1 -.61.22zm-2.79-12.7a3 3 0 0 1 -2.93-2.33l-.22-1a3 3 0 0 1 5.85-1.34l.22 1a3 3 0 0 1 -2.25 3.59 3.14 3.14 0 0 1 -.66.24zm-3-12.65a3 3 0 0 1 -2.91-2.28l-.24-1a3 3 0 0 1 5.82-1.45l.24 1a3 3 0 0 1 -2.19 3.64 3 3 0 0 1 -.73.25zm-3.25-12.59a3 3 0 0 1 -2.9-2.23l-.26-1a3 3 0 1 1 5.79-1.56l.27 1a3 3 0 0 1 -2.9 3.78zm-3.48-12.54a3 3 0 0 1 -2.88-2.17l-.28-1a3 3 0 1 1 5.76-1.66l.28 1a3 3 0 0 1 -2.88 3.83zm-3.71-12.46a3 3 0 0 1 -2.86-2.12l-.3-1a3 3 0 1 1 5.74-1.76l.29 1a3 3 0 0 1 -2 3.75 3.09 3.09 0 0 1 -.88.29zm-3.93-12.4a3 3 0 0 1 -2.85-2.06l-.31-1a3 3 0 1 1 5.72-1.69l.31.95a3 3 0 0 1 -1.91 3.78 2.8 2.8 0 0 1 -.97.18zm-4.16-12.32a3 3 0 0 1 -2.83-2l-.33-.94a3 3 0 0 1 5.67-2l.33.95a3 3 0 0 1 -1.85 3.81 2.87 2.87 0 0 1 -1 .34zm-4.38-12.08a3 3 0 0 1 -2.82-2l-.34-.93a3 3 0 1 1 5.62-2.08l.35.94a3 3 0 0 1 -1.78 3.85 2.88 2.88 0 0 1 -1.03.22z"/><path d="m43 500.57a3 3 0 0 1 -2.82-2l-.34-.94a3 3 0 1 1 5.64-2l.34.94a3 3 0 0 1 -1.8 3.84 3 3 0 0 1 -1.02.16zm-4.33-12.26a3 3 0 0 1 -2.84-2l-.32-.95a3 3 0 0 1 5.68-1.94l.32.95a3 3 0 0 1 -2.84 4zm-4.13-12.31a3 3 0 0 1 -2.85-2.09l-.31-.95a3 3 0 1 1 5.71-1.83l.31.95a3 3 0 0 1 -1.94 3.77 2.91 2.91 0 0 1 -.92.15zm-3.87-12.41a3 3 0 0 1 -2.87-2.14l-.29-1a3 3 0 1 1 5.74-1.73l.29 1a3 3 0 0 1 -2 3.74 3.2 3.2 0 0 1 -.87.1zm-3.67-12.52a3 3 0 0 1 -2.88-2.18l-.28-1a3 3 0 1 1 5.78-1.62l.27 1a3 3 0 0 1 -2.07 3.7 2.89 2.89 0 0 1 -.82.1zm-3.4-12.54a3 3 0 0 1 -2.9-2.24l-.25-1a3 3 0 1 1 5.8-1.52l.25 1a3 3 0 0 1 -2.13 3.67 3.46 3.46 0 0 1 -.77.09zm-3.19-12.61a3 3 0 0 1 -2.92-2.3l-.23-1a3 3 0 1 1 5.83-1.41l.24 1a3 3 0 0 1 -2.21 3.62 2.94 2.94 0 0 1 -.71.09zm-3-12.67a3 3 0 0 1 -2.93-2.34l-.22-1a3 3 0 0 1 5.86-1.31l.22 1a3 3 0 0 1 -2.28 3.58 2.94 2.94 0 0 1 -.61.07zm-2.73-12.71a3 3 0 0 1 -2.94-2.4l-.2-1a3 3 0 1 1 5.88-1.2l.2 1a3 3 0 0 1 -2.34 3.54 3.13 3.13 0 0 1 -.56.06zm-2.51-12.76a3 3 0 0 1 -2.94-2.46l-.18-1a3 3 0 1 1 5.9-1.08l.18 1a3 3 0 0 1 -2.4 3.49 2.67 2.67 0 0 1 -.52.05zm-2.17-12.78a3 3 0 0 1 -3-2.51l-.16-1a3 3 0 1 1 5.92-1l.16 1a3 3 0 0 1 -2.46 3.46 2.89 2.89 0 0 1 -.46.05zm-2-12.85a3 3 0 0 1 -3-2.56l-.15-1a3 3 0 1 1 5.94-.88l.14 1a3 3 0 0 1 -2.52 3.41 3.4 3.4 0 0 1 -.5 0zm-1.8-12.88a3 3 0 0 1 -3-2.61l-.13-1a3 3 0 1 1 6-.77l.13 1a3 3 0 0 1 -2.59 3.36 2.56 2.56 0 0 1 -.5-.01zm-1.66-12.94a3 3 0 0 1 -3-2.67l-.11-1a3 3 0 1 1 6-.66l.11 1a3 3 0 0 1 -2.64 3.31zm-1.34-12.94a3 3 0 0 1 -3-2.72l-.09-1a3 3 0 0 1 6-.55l.09 1a3 3 0 0 1 -2.7 3.27zm-1.1-13a3 3 0 0 1 -3-2.77l-.07-1a3 3 0 0 1 2.76-3.21 3 3 0 0 1 3.21 2.8l.07 1a3 3 0 0 1 -2.76 3.22zm-.87-13a3 3 0 0 1 -3-2.83l-.06-1a3 3 0 1 1 6-.34l.06 1a3 3 0 0 1 -2.83 3.16zm-.64-13a3 3 0 0 1 -3-2.88v-1a3 3 0 0 1 6-.23v1a3 3 0 0 1 -2.88 3.11zm-3.41-15.94v-1a3 3 0 0 1 2.92-3 3 3 0 0 1 3.06 2.94v1zm-.18-12.99v-1a3 3 0 0 1 3-3 3 3 0 0 1 3 3v1zm6.05-13-6-.06v-1a3 3 0 0 1 3-3 3 3 0 0 1 3 3zm-2.71-10h-.09a3 3 0 0 1 -2.9-3.1v-1a3 3 0 0 1 3.1-2.9 3 3 0 0 1 2.9 3.09v1a3 3 0 0 1 -3 2.9zm.51-13h-.13a3 3 0 0 1 -2.85-3.14v-1a3 3 0 0 1 3.14-2.85 3 3 0 0 1 2.85 3.15l-.05 1a3 3 0 0 1 -2.95 2.85zm.75-13h-.2a3 3 0 0 1 -2.8-3.19l.07-1a3 3 0 0 1 3.2-2.79 3 3 0 0 1 2.79 3.19l-.07 1a3 3 0 0 1 -2.98 2.83zm1-12.95h-.27a3 3 0 0 1 -2.73-3.22l.08-1a3 3 0 0 1 6 .51l-.08 1a3 3 0 0 1 -3.01 2.75zm4.2-15.72-3-.21-3-.31.11-1a3 3 0 1 1 6 .63zm-1.55-10.08a2.22 2.22 0 0 1 -.37 0 3 3 0 0 1 -2.62-3.33l.12-1a3 3 0 0 1 6 .73l-.12 1a3 3 0 0 1 -3.01 2.6zm1.67-12.89a3 3 0 0 1 -3-3.42l.13-1a3 3 0 1 1 5.95.83l-.14 1a3 3 0 0 1 -2.94 2.59zm1.91-12.82a3.71 3.71 0 0 1 -.47 0 3 3 0 0 1 -2.5-3.43l.16-1a3 3 0 1 1 5.92.94l-.15 1a3 3 0 0 1 -2.96 2.49zm2.17-12.84a3.27 3.27 0 0 1 -.53 0 3 3 0 0 1 -2.47-3.53l.18-1a3 3 0 1 1 5.9 1l-.17 1a3 3 0 0 1 -2.91 2.53zm2.37-12.78a2.9 2.9 0 0 1 -.58 0 3 3 0 0 1 -2.37-3.52l.2-1a3 3 0 1 1 5.85 1.14l-.19 1a3 3 0 0 1 -2.94 2.38zm2.6-12.72a3.57 3.57 0 0 1 -.63-.07 3 3 0 0 1 -2.34-3.59l.21-1a3 3 0 0 1 5.86 1.27l-.2 1a3 3 0 0 1 -2.93 2.39zm2.81-12.66a3.23 3.23 0 0 1 -.69-.07 3 3 0 0 1 -2.24-3.61l.23-1a3 3 0 1 1 5.84 1.37l-.22 1a3 3 0 0 1 -2.92 2.31zm3.06-12.62a3 3 0 0 1 -2.91-3.74l.25-1a3 3 0 1 1 5.82 1.48l-.24 1a3 3 0 0 1 -2.92 2.23zm3.3-12.57a3.07 3.07 0 0 1 -.79-.11 3 3 0 0 1 -2.11-3.7l.26-1a3 3 0 0 1 5.79 1.59l-.26 1a3 3 0 0 1 -2.89 2.19zm3.52-12.51a3 3 0 0 1 -.84-.12 3 3 0 0 1 -2.05-3.72l.29-1a3 3 0 1 1 5.75 1.69l-.27 1a3 3 0 0 1 -2.88 2.12zm3.74-12.47a3.11 3.11 0 0 1 -.89-.14 3 3 0 0 1 -2-3.76l.3-1a3 3 0 1 1 5.72 1.79l-.29.95a3 3 0 0 1 -2.84 2.16zm4-12.37a2.87 2.87 0 0 1 -1-.16 3 3 0 0 1 -1.9-3.79l.32-1a3 3 0 1 1 5.69 1.89l-.32.95a3 3 0 0 1 -2.81 2.11zm4.2-12.3a3.18 3.18 0 0 1 -1-.17 3 3 0 0 1 -1.83-3.83l.33-.94a3 3 0 1 1 5.66 2l-.33.94a3 3 0 0 1 -2.85 2zm4.4-12.22a3 3 0 0 1 -1-.19 3 3 0 0 1 -1.81-3.86l.35-.89a3 3 0 0 1 3.86-1.81 3 3 0 0 1 1.76 3.86l-.35.95a3 3 0 0 1 -2.81 1.94z"/><path d="m84.26 128a1.72 1.72 0 0 1 -.39 0 2 2 0 0 1 -1.58-2.35 647.13 647.13 0 0 1 42.37-134.94 2 2 0 0 1 2.64-1 2 2 0 0 1 1 2.64 642.92 642.92 0 0 0 -42.1 134.07 2 2 0 0 1 -1.94 1.58z"/><path d="m122.92 506.23a2 2 0 0 1 -1.84-1.22 646 646 0 0 1 -51.08-253.01 659.3 659.3 0 0 1 4-72.22 2 2 0 1 1 4 .44 656.37 656.37 0 0 0 -4 71.78 642 642 0 0 0 50.76 251.45 2 2 0 0 1 -1.06 2.62 2 2 0 0 1 -.78.16z"/><path d="m284.24 507.39a2 2 0 0 1 -1.73-1 502.88 502.88 0 0 1 -54.8-136.94 2 2 0 1 1 3.89-.92 498.57 498.57 0 0 0 54.4 135.85 2 2 0 0 1 -1.73 3zm-66.24-298.39h-.18a2 2 0 0 1 -1.81-2.17 499.57 499.57 0 0 1 70.7-216.29 2 2 0 0 1 2.74-.67 2 2 0 0 1 .68 2.74 495.64 495.64 0 0 0 -70.13 214.57 2 2 0 0 1 -2 1.82z"/><path d="m1154.69 509.22a2.08 2.08 0 0 1 -1-.27 2 2 0 0 1 -.71-2.74 497 497 0 0 0 62.57-173.53 2 2 0 0 1 4 .64 501.29 501.29 0 0 1 -63.07 174.92 2 2 0 0 1 -1.79.98zm62.82-336.22a2 2 0 0 1 -2-1.68 497.09 497.09 0 0 0 -64.89-177.47 2 2 0 0 1 .68-2.75 2 2 0 0 1 2.75.69 501 501 0 0 1 65.43 178.89 2 2 0 0 1 -1.65 2.29z"/><path d="m462.07 505.14a2 2 0 0 1 -1.43-.6 362.52 362.52 0 0 1 -83.09-370.19 2 2 0 0 1 3.79 1.3 358.49 358.49 0 0 0 82.16 366.1 2 2 0 0 1 0 2.83 2 2 0 0 1 -1.43.56z"/><path d="m425.47 47a2.05 2.05 0 0 1 -1.15-.36 2 2 0 0 1 -.48-2.79 364.64 364.64 0 0 1 42.34-49.95 2 2 0 0 1 2.82 0 2 2 0 0 1 0 2.83 361.12 361.12 0 0 0 -41.87 49.39 2 2 0 0 1 -1.66.88z"/><path d="m973.73 509.38a2 2 0 0 1 -1.41-3.42 360.28 360.28 0 0 0 46.68-57.06 2 2 0 0 1 3.34 2.2 363.79 363.79 0 0 1 -47.22 57.69 2 2 0 0 1 -1.39.59z"/><path d="m1063.5 362a2.08 2.08 0 0 1 -.6-.09 2 2 0 0 1 -1.31-2.51 357.56 357.56 0 0 0 -88.45-360.54 2 2 0 0 1 0-2.83 2 2 0 0 1 2.86-.03 362.46 362.46 0 0 1 89.44 364.57 2 2 0 0 1 -1.94 1.43z"/><path d="m1315.1 510.81a2 2 0 0 1 -1.86-2.71l19.11-49.82a2 2 0 0 1 3.76 1.36c-5.7 16.91-12.15 33.72-19.17 50a2 2 0 0 1 -1.84 1.17zm34.72-103.81a2 2 0 0 1 -.47-.06 2 2 0 0 1 -1.47-2.41 651.33 651.33 0 0 0 4.12-287.12 2 2 0 1 1 3.91-.82 655.26 655.26 0 0 1 -4.09 288.88 2 2 0 0 1 -2 1.53zm-22-378h-.34a2 2 0 0 1 -1.86-1.27l-13.9-35.32a2 2 0 0 1 1.09-2.58 2 2 0 0 1 2.6 1c5.06 11.53 9.88 23.45 14.32 35.44a2 2 0 0 1 -.23 1.83 2 2 0 0 1 -1.65.9z"/></g></svg>