<?xml version="1.0" standalone="no"?>
<!DOCTYPE svg PUBLIC "-//W3C//DTD SVG 20010904//EN"
 "http://www.w3.org/TR/2001/REC-SVG-20010904/DTD/svg10.dtd">
<svg version="1.0" xmlns="http://www.w3.org/2000/svg"
 width="500.000000pt" height="500.000000pt" viewBox="0 0 500.000000 500.000000"
 preserveAspectRatio="xMidYMid meet">
<metadata>
Created by potrace 1.14, written by Peter Selinger 2001-2017
</metadata>
<g transform="translate(0.000000,500.000000) scale(0.100000,-0.100000)"
fill="#000000" stroke="none">
<path d="M1084 4181 c-191 -54 -275 -179 -284 -426 -6 -169 -4 -2382 2 -2515
4 -69 13 -148 22 -177 60 -193 275 -301 463 -232 125 46 110 27 637 814 253
379 272 411 262 449 -7 30 -48 50 -83 41 -20 -5 -198 -142 -252 -193 -21 -20
-22 -21 -260 -226 -197 -169 -224 -187 -244 -167 -9 9 -12 203 -11 859 1 806
5 1017 19 1030 3 4 25 -14 48 -38 52 -55 294 -336 397 -460 49 -58 171 -203
198 -235 10 -11 40 -47 67 -80 28 -33 52 -62 55 -65 3 -3 28 -32 55 -65 28
-33 60 -71 71 -85 12 -14 102 -122 200 -240 98 -118 181 -217 184 -220 3 -3
48 -57 100 -120 52 -63 104 -126 117 -140 12 -14 61 -72 108 -130 48 -58 97
-116 109 -130 11 -14 98 -117 193 -230 194 -233 278 -322 325 -346 148 -77
348 -64 471 30 94 71 136 170 145 341 8 157 8 2441 0 2565 -12 166 -57 262
-157 332 -74 52 -148 72 -239 65 -151 -11 -206 -61 -427 -387 -448 -660 -565
-841 -565 -875 0 -29 36 -65 64 -65 13 0 41 12 62 26 34 23 130 99 144 114 3
3 32 28 65 55 32 28 66 57 75 65 9 8 43 38 75 66 321 276 336 287 359 264 7
-7 10 -238 10 -758 -2 -1021 -4 -1132 -24 -1132 -7 0 -137 141 -195 211 -11
13 -74 87 -140 164 -66 78 -138 163 -160 190 -22 28 -45 55 -51 60 -6 6 -58
66 -115 135 -57 69 -113 136 -125 150 -12 14 -72 86 -134 160 -62 74 -122 146
-134 160 -11 14 -52 63 -91 110 -38 47 -80 96 -91 110 -35 41 -186 222 -229
275 -22 27 -56 67 -75 90 -20 22 -80 94 -135 160 -54 66 -106 128 -114 137 -9
9 -21 23 -26 30 -6 7 -68 82 -138 166 -142 169 -195 225 -247 263 -81 59 -242
82 -356 50z"/>
</g>
</svg>
